<svg width="16" height="17" viewBox="0 0 16 17" fill="none" xmlns="http://www.w3.org/2000/svg">
<path fill-rule="evenodd" clip-rule="evenodd" d="M8.33654 4.28112C7.93994 4.05113 7.49161 3.90055 7.01321 3.85113C7.47174 3.04426 8.33901 2.5 9.33334 2.5C10.8061 2.5 12 3.69391 12 5.16667C12 5.82789 11.7593 6.43291 11.3609 6.8989C13.3008 7.69687 14.6667 9.6056 14.6667 11.8333C14.6667 12.2015 14.3682 12.5 14 12.5H12.518C12.4119 12.0325 12.2512 11.5857 12.043 11.1667H13.278C12.9928 9.46647 11.635 8.13 9.92421 7.87667C9.97388 7.64787 10 7.41033 10 7.16667C10 6.89272 9.96694 6.62649 9.90468 6.37175C10.3552 6.15779 10.6667 5.69861 10.6667 5.16667C10.6667 4.43029 10.0697 3.83333 9.33334 3.83333C8.93688 3.83333 8.58074 4.00641 8.33654 4.28112ZM6.66668 8.5C7.40308 8.5 8.00001 7.90307 8.00001 7.16667C8.00001 6.43029 7.40308 5.83333 6.66668 5.83333C5.9303 5.83333 5.33334 6.43029 5.33334 7.16667C5.33334 7.90307 5.9303 8.5 6.66668 8.5ZM9.33334 7.16667C9.33334 7.82787 9.09268 8.43293 8.69414 8.89893C10.6341 9.69687 12 11.6056 12 13.8333C12 14.2015 11.7015 14.5 11.3333 14.5H2.00001C1.63182 14.5 1.33334 14.2015 1.33334 13.8333C1.33334 11.6056 2.6992 9.69687 4.63918 8.89893C4.24067 8.43293 4.00001 7.82787 4.00001 7.16667C4.00001 5.69391 5.19392 4.5 6.66668 4.5C8.13941 4.5 9.33334 5.69391 9.33334 7.16667ZM6.66667 9.83333C8.64868 9.83333 10.294 11.2749 10.6113 13.1667H2.72198C3.03936 11.2749 4.68467 9.83333 6.66667 9.83333Z" fill="white"/>
</svg>
