<svg width="17" height="17" viewBox="0 0 17 17" fill="none" xmlns="http://www.w3.org/2000/svg">
<path d="M6.92986 2.73958C6.99865 2.59306 7.14607 2.49964 7.30794 2.5L12.6109 2.51172C12.7725 2.51207 12.9194 2.60591 12.9877 2.75245C13.056 2.89899 13.0333 3.07179 12.9295 3.19577L10.0638 6.62068H12.4931C12.6637 6.62068 12.8172 6.72475 12.8802 6.88333C12.9433 7.0419 12.9033 7.22292 12.7793 7.34015L4.79598 14.8862C4.64692 15.027 4.41751 15.0385 4.25516 14.9132C4.0928 14.7878 4.04579 14.563 4.14434 14.3831L6.66211 9.78736H4.27665C4.13407 9.78736 4.00139 9.71448 3.92495 9.59408C3.8485 9.47376 3.83889 9.32264 3.89949 9.1936L6.92986 2.73958Z" fill="white"/>
</svg>
