<svg width="20" height="21" viewBox="0 0 20 21" fill="none" xmlns="http://www.w3.org/2000/svg">
<path fill-rule="evenodd" clip-rule="evenodd" d="M3.33331 4.26668C3.33331 3.80645 3.70641 3.43335 4.16665 3.43335H5.83331C6.29355 3.43335 6.66665 3.80645 6.66665 4.26668V5.93335C6.66665 6.39358 6.29355 6.76668 5.83331 6.76668H4.16665C3.70641 6.76668 3.33331 6.39358 3.33331 5.93335V4.26668ZM3.33331 9.26668C3.33331 8.80643 3.70641 8.43335 4.16665 8.43335H5.83331C6.29355 8.43335 6.66665 8.80643 6.66665 9.26668V10.9333C6.66665 11.3936 6.29355 11.7667 5.83331 11.7667H4.16665C3.70641 11.7667 3.33331 11.3936 3.33331 10.9333V9.26668ZM9.16665 3.43335C8.7064 3.43335 8.33331 3.80645 8.33331 4.26668V5.93335C8.33331 6.39358 8.7064 6.76668 9.16665 6.76668H10.8333C11.2936 6.76668 11.6666 6.39358 11.6666 5.93335V4.26668C11.6666 3.80645 11.2936 3.43335 10.8333 3.43335H9.16665ZM8.33331 9.26668C8.33331 8.80643 8.7064 8.43335 9.16665 8.43335H10.8333C11.2936 8.43335 11.6666 8.80643 11.6666 9.26668V10.9333C11.6666 11.3936 11.2936 11.7667 10.8333 11.7667H9.16665C8.7064 11.7667 8.33331 11.3936 8.33331 10.9333V9.26668ZM14.1666 3.43335C13.7064 3.43335 13.3333 3.80645 13.3333 4.26668V5.93335C13.3333 6.39358 13.7064 6.76668 14.1666 6.76668H15.8333C16.2936 6.76668 16.6666 6.39358 16.6666 5.93335V4.26668C16.6666 3.80645 16.2936 3.43335 15.8333 3.43335H14.1666ZM13.3333 9.26668C13.3333 8.80643 13.7064 8.43335 14.1666 8.43335H15.8333C16.2936 8.43335 16.6666 8.80643 16.6666 9.26668V10.9333C16.6666 11.3936 16.2936 11.7667 15.8333 11.7667H14.1666C13.7064 11.7667 13.3333 11.3936 13.3333 10.9333V9.26668ZM4.16665 13.4333C3.70641 13.4333 3.33331 13.8064 3.33331 14.2667V15.9333C3.33331 16.3936 3.70641 16.7667 4.16665 16.7667H5.83331C6.29355 16.7667 6.66665 16.3936 6.66665 15.9333V14.2667C6.66665 13.8064 6.29355 13.4333 5.83331 13.4333H4.16665ZM8.33331 14.2667C8.33331 13.8064 8.7064 13.4333 9.16665 13.4333H10.8333C11.2936 13.4333 11.6666 13.8064 11.6666 14.2667V15.9333C11.6666 16.3936 11.2936 16.7667 10.8333 16.7667H9.16665C8.7064 16.7667 8.33331 16.3936 8.33331 15.9333V14.2667ZM14.1666 13.4333C13.7064 13.4333 13.3333 13.8064 13.3333 14.2667V15.9333C13.3333 16.3936 13.7064 16.7667 14.1666 16.7667H15.8333C16.2936 16.7667 16.6666 16.3936 16.6666 15.9333V14.2667C16.6666 13.8064 16.2936 13.4333 15.8333 13.4333H14.1666Z" fill="#9FADBC"/>
</svg>
