<svg width="20" height="21" viewBox="0 0 20 21" fill="none" xmlns="http://www.w3.org/2000/svg">
<path fill-rule="evenodd" clip-rule="evenodd" d="M4.16667 12.1667C5.08714 12.1667 5.83333 11.4205 5.83333 10.5C5.83333 9.57951 5.08714 8.83334 4.16667 8.83334C3.24619 8.83334 2.5 9.57951 2.5 10.5C2.5 11.4205 3.24619 12.1667 4.16667 12.1667ZM10 12.1667C10.9205 12.1667 11.6667 11.4205 11.6667 10.5C11.6667 9.57951 10.9205 8.83334 10 8.83334C9.0795 8.83334 8.33333 9.57951 8.33333 10.5C8.33333 11.4205 9.0795 12.1667 10 12.1667ZM17.5 10.5C17.5 11.4205 16.7538 12.1667 15.8333 12.1667C14.9128 12.1667 14.1667 11.4205 14.1667 10.5C14.1667 9.57951 14.9128 8.83334 15.8333 8.83334C16.7538 8.83334 17.5 9.57951 17.5 10.5Z" fill="white"/>
</svg>
