<svg width="16" height="17" viewBox="0 0 16 17" fill="none" xmlns="http://www.w3.org/2000/svg">
<path fill-rule="evenodd" clip-rule="evenodd" d="M4.99664 14.4967L7.99994 12.9177L11.0033 14.4967C11.2039 14.6022 11.4338 14.6386 11.6573 14.6003C12.2184 14.504 12.5953 13.9711 12.4991 13.4099L11.9255 10.0657L14.3552 7.69728C14.5175 7.53901 14.6232 7.33168 14.6558 7.1073C14.7377 6.54385 14.3473 6.02072 13.7839 5.93884L10.4261 5.45092L8.92441 2.40825C8.82408 2.20494 8.65948 2.04037 8.45621 1.94003C7.94561 1.68805 7.32748 1.89768 7.07548 2.40825L5.57382 5.45092L2.21603 5.93884C1.99166 5.97144 1.7843 6.0771 1.62604 6.23946C1.22862 6.64717 1.23696 7.29988 1.64467 7.69728L4.0744 10.0657L3.50082 13.4099C3.46249 13.6333 3.4989 13.8632 3.6044 14.0639C3.86935 14.5679 4.49268 14.7616 4.99664 14.4967ZM12.8971 7.19901L10.4485 9.58581L11.0265 12.956L7.99994 11.3648L4.97331 12.956L5.55134 9.58581L3.10275 7.19901L6.48663 6.7073L7.99994 3.64098L9.51328 6.7073L12.8971 7.19901Z" fill="white"/>
</svg>
