<svg width="20" height="21" viewBox="0 0 20 21" fill="none" xmlns="http://www.w3.org/2000/svg">
<path fill-rule="evenodd" clip-rule="evenodd" d="M1.66669 10.5C1.66669 5.89721 5.39725 2.16666 10 2.16666C14.6028 2.16666 18.3334 5.89721 18.3334 10.5C18.3334 15.1027 14.6028 18.8333 10 18.8333C5.39725 18.8333 1.66669 15.1027 1.66669 10.5ZM3.33335 10.5C3.33335 14.1823 6.31772 17.1667 10 17.1667C13.6824 17.1667 16.6667 14.1823 16.6667 10.5C16.6667 6.81769 13.6824 3.83332 10 3.83332C6.31772 3.83332 3.33335 6.81769 3.33335 10.5ZM6.66669 8.83332C6.66668 6.73651 8.60119 5.09256 10.7824 5.58926C11.9858 5.8626 12.9641 6.8376 13.2416 8.0401C13.6508 9.81424 12.6433 11.4092 11.1324 11.9559C10.9624 12.0167 10.8416 12.1684 10.8416 12.3492V12.1667C10.8416 12.6267 10.4691 13.0001 10.0083 13.0001C9.54827 13.0001 9.17494 12.6267 9.17494 12.1667V11.3226C9.1816 10.8676 9.54994 10.5001 9.99994 10.5001C10.9191 10.5001 11.6666 9.75174 11.6666 8.83341C11.6666 7.91426 10.9191 7.16676 9.99994 7.16676C9.07994 7.16676 8.33281 7.93593 8.33369 8.85591C8.32104 9.30549 7.95245 9.66666 7.50002 9.66666C7.0648 9.66666 6.70715 9.33249 6.6699 8.90682C6.6699 8.90682 6.66669 8.85807 6.66669 8.83332ZM10 15.5C9.54002 15.5 9.16669 15.1267 9.16669 14.6667C9.16669 14.2067 9.54002 13.8333 10 13.8333C10.46 13.8333 10.8334 14.2067 10.8334 14.6667C10.8334 15.1267 10.46 15.5 10 15.5Z" fill="#9FADBC"/>
</svg>
